
<svg width="100%" viewBox="164 36 352 352" role="img" xmlns="http://www.w3.org/2000/svg">

<polygon fill="white" points="344,60 384,40 424,60 424,100 384,120 344,100"/>
<polygon fill="white" points="256,60 296,40 336,60 336,100 296,120 256,100"/>

<polygon fill="white" points="300,126 340,106 380,126 380,166 340,186 300,166"/>
<polygon fill="white" points="212,126 252,106 292,126 292,166 252,186 212,166"/>
<polygon fill="white" points="388,126 428,106 468,126 468,166 428,186 388,166"/>

<polygon fill="white" points="256,192 296,172 336,192 336,232 296,252 256,232"/>
<polygon fill="white" points="344,192 384,172 424,192 424,232 384,252 344,232"/>
<polygon fill="white" points="168,192 208,172 248,192 248,232 208,252 168,232"/>
<polygon fill="white" points="432,192 472,172 512,192 512,232 472,252 432,232"/>

<polygon fill="white" points="212,258 252,238 292,258 292,298 252,318 212,298"/>
<polygon fill="white" points="300,258 340,238 380,258 380,298 340,318 300,298"/>
<polygon fill="white" points="388,258 428,238 468,258 468,298 428,318 388,298"/>

<polygon fill="white" points="256,324 296,304 336,324 336,364 296,384 256,364"/>
<polygon fill="white" points="344,324 384,304 424,324 424,364 384,384 344,364"/>

</svg>
