<svg xmlns="http://www.w3.org/2000/svg" width="283" height="96" fill="none"><path fill="#ffae00" d="m42 0 42 24v48L42 96 0 72V24zM258.739 24.6V75h-4.68V24.6zm19.44 48.168V75h-19.656v-2.232zm-3.096-23.688v2.16h-16.56v-2.16zm3.096-24.48v2.232h-19.656V24.6zm4.392 38.736L278.395 75h-11.952l2.592-2.232q3.816 0 6.192-1.152 2.448-1.224 3.96-3.384t2.664-4.896zm-7.488-12.24v4.752h-.72v-1.08q0-1.44-1.008-2.448-1.008-1.08-2.448-1.08v-.144zm0-6.624v4.752h-4.176v-.144q1.44-.072 2.448-1.08 1.008-1.08 1.008-2.52v-1.008zm3.096-17.856v5.76h-.72V31.08q0-1.728-1.224-2.952-1.224-1.296-3.024-1.368v-.144zm0-3.312v2.088l-8.784-.792q1.584 0 3.312-.216 1.8-.216 3.312-.504t2.16-.576m-23.904 46.44V75h-5.76v-.72h.936q1.872 0 3.168-1.296 1.368-1.368 1.44-3.24zm0-39.888h-.216q0-1.872-1.368-3.168-1.368-1.368-3.24-1.368h-.864l-.072-.72h5.76zM217.322 76.008l-22.32-50.976h6.12l17.64 44.136zm0 0-.648-5.04 19.152-46.152h4.32l-19.512 43.776-.432.936q-.36.864-.936 2.16-.504 1.296-.936 2.52-.36 1.224-.36 1.8zm16.488-46.224q.792-2.16-.288-3.312t-2.448-1.152h-.648v-.72h14.472v.72h-.648q-1.584 0-3.384 1.08-1.8 1.008-2.952 3.456zm-30.744 0-5.976.072q-1.08-2.448-2.88-3.456-1.8-1.08-3.456-1.08h-.576v-.72h16.2v.72h-.648q-1.368 0-2.448 1.152-1.008 1.152-.216 3.312M181.114 24.6V75h-4.68V24.6zm-4.464 45.144V75h-5.76v-.72h.936q1.872 0 3.168-1.296 1.368-1.368 1.44-3.24zm0-39.888h-.216q-.072-1.872-1.44-3.168-1.296-1.368-3.168-1.368h-.936v-.72h5.76zm4.248 39.888h.216q.072 1.872 1.368 3.24 1.368 1.296 3.24 1.296h.936V75h-5.76zm0-39.888V24.6h5.76v.72h-.936q-1.872 0-3.24 1.368-1.296 1.296-1.368 3.168zM156.672 24.6V75h-4.68V24.6zm-34.128 0V75h-4.68V24.6zm30.096 24.408v2.16h-30.816v-2.16zm-34.56 20.736V75h-5.76v-.72h.936q1.872 0 3.168-1.296 1.368-1.368 1.44-3.24zm0-39.888h-.216q-.072-1.872-1.44-3.168-1.296-1.368-3.168-1.368h-.936v-.72h5.76zm4.248 39.888h.216q.072 1.872 1.368 3.24 1.368 1.296 3.24 1.296h.936V75h-5.76zm0-39.888V24.6h5.76v.72h-.936q-1.872 0-3.24 1.368-1.296 1.296-1.368 3.168zm29.88 39.888V75h-5.76v-.72h.936q1.872 0 3.24-1.296 1.368-1.368 1.368-3.24zm0-39.888h-.216q0-1.872-1.368-3.168-1.368-1.368-3.24-1.368h-.936v-.72h5.76zm4.248 39.888h.216q.072 1.872 1.368 3.24 1.368 1.296 3.24 1.296h.936V75h-5.76zm0-39.888V24.6h5.76v.72h-.936q-1.872 0-3.24 1.368-1.296 1.296-1.368 3.168z"/></svg>